{
	"asset":{
		"generator":"Khronos glTF Blender I/O v5.1.18",
		"version":"2.0"
	},
	"extensionsUsed":[
		"KHR_materials_specular"
	],
	"scene":0,
	"scenes":[
		{
			"name":"Scene",
			"nodes":[
				0
			]
		}
	],
	"nodes":[
		{
			"mesh":0,
			"name":"Wall_Sconce_Mesh.002",
			"rotation":[
				0.7071068286895752,
				0,
				0,
				0.7071068286895752
			]
		}
	],
	"materials":[
		{
			"doubleSided":true,
			"extensions":{
				"KHR_materials_specular":{
					"specularFactor":0
				}
			},
			"name":"phong3",
			"pbrMetallicRoughness":{
				"baseColorTexture":{
					"index":0
				},
				"metallicFactor":0
			}
		}
	],
	"meshes":[
		{
			"name":"Wall_Sconce_Mesh.002",
			"primitives":[
				{
					"attributes":{
						"POSITION":0,
						"NORMAL":1,
						"TEXCOORD_0":2
					},
					"indices":3,
					"material":0
				}
			]
		}
	],
	"textures":[
		{
			"sampler":0,
			"source":0
		}
	],
	"images":[
		{
			"mimeType":"image/png",
			"name":"Wall_Sconce_BaseColor_4k",
			"uri":"Wall_Sconce_BaseColor_4k.png"
		}
	],
	"accessors":[
		{
			"bufferView":0,
			"componentType":5126,
			"count":2929,
			"max":[
				0.12579700350761414,
				0.12579800188541412,
				0.0032659999560564756
			],
			"min":[
				-0.23307999968528748,
				-0.12579700350761414,
				-0.5808010101318359
			],
			"type":"VEC3"
		},
		{
			"bufferView":1,
			"componentType":5126,
			"count":2929,
			"type":"VEC3"
		},
		{
			"bufferView":2,
			"componentType":5126,
			"count":2929,
			"type":"VEC2"
		},
		{
			"bufferView":3,
			"componentType":5123,
			"count":12804,
			"type":"SCALAR"
		}
	],
	"bufferViews":[
		{
			"buffer":0,
			"byteLength":35148,
			"byteOffset":0,
			"target":34962
		},
		{
			"buffer":0,
			"byteLength":35148,
			"byteOffset":35148,
			"target":34962
		},
		{
			"buffer":0,
			"byteLength":23432,
			"byteOffset":70296,
			"target":34962
		},
		{
			"buffer":0,
			"byteLength":25608,
			"byteOffset":93728,
			"target":34963
		}
	],
	"samplers":[
		{
			"magFilter":9729,
			"minFilter":9987
		}
	],
	"buffers":[
		{
			"byteLength":119336,
			"uri":"Torch.bin"
		}
	]
}
